<svg xmlns="http://www.w3.org/2000/svg" xmlns:xlink="http://www.w3.org/1999/xlink" viewBox="0 0 141.33 141.65"><defs><style>.cls-1{fill:#fca84c;}.cls-1,.cls-2{fill-rule:evenodd;}.cls-2{fill:url(#未命名的渐变_7);}</style><radialGradient id="未命名的渐变_7" cx="70.66" cy="70.82" r="70.74" gradientUnits="userSpaceOnUse"><stop offset="0" stop-color="#ff4321"/><stop offset="0.24" stop-color="#f94022"/><stop offset="0.55" stop-color="#e83826"/><stop offset="0.91" stop-color="#cc2b2c"/><stop offset="1" stop-color="#c4272e"/></radialGradient></defs><title>资源 1</title><g id="图层_2" data-name="图层 2"><g id="图层_1-2" data-name="图层 1"><path class="cls-1" d="M113.07,91.75c7.66-29.62-3.13-49.32-8-57C99.13,25.34,87.47,19,83.29,16.9a.67.67,0,0,1,.12-1.25c6.16-1.73,28.38-5.83,48.38,17.21,17.39,20,4.28,47.15-3.7,59.89a.68.68,0,0,1-1.2-.64c3.56-8.18,8.1-21.25,6.26-31.51a44.75,44.75,0,0,0-11-22.31A.68.68,0,0,0,121,39c2.79,6.84,7.93,24.08,7.87,36.73-.08,15.64-.68,29.62-11.24,45.62-7.58,11.49-16.28,12.36-17,12.42h-.09L79,133a.68.68,0,0,1-.28-1.28C86.05,128.14,106.8,116,113.07,91.75Z"/><path class="cls-2" d="M110.09,130.05S71,158.39,27.88,126.47C-14.51,95.07-1.49,43.75,20.47,21,48.83-8.32,84.05,1.62,84.05,1.62S38.6,14.9,62.85,58.3c13.42,24,44.74,27.74,61,19.15,14.83-7.82,15.31-27.06,15.31-27.06s10.22,36.77-14,55.4S64.07,113.4,47.79,95.33C22.26,67,31.19,36.09,31.19,36.09S11,70.47,37.83,105.54,110.09,130.05,110.09,130.05Z"/></g></g></svg>