<?xml version="1.0" encoding="utf-8"?>
<!-- Generator: Adobe Illustrator 24.0.1, SVG Export Plug-In . SVG Version: 6.00 Build 0)  -->
<svg version="1.1" id="图层_1" xmlns="http://www.w3.org/2000/svg" xmlns:xlink="http://www.w3.org/1999/xlink" x="0px" y="0px"
	 viewBox="0 0 200 200" style="enable-background:new 0 0 200 200;" xml:space="preserve">
<style type="text/css">
	.st0{fill:#3986F6;}
</style>
<path class="st0" d="M161.9,199.7H38.1c-20.9,0-38-17.1-38-38V38c0-20.9,17.1-38,38-38h123.7c20.9,0,38,17.1,38,38v123.7
	C199.9,182.6,182.8,199.7,161.9,199.7z M63.7,65.3L63.7,65.3l0,50.6c0,1-0.2,2.5-0.6,4.7c-0.4,2.2-0.9,3.9-1.5,5.2l-7.1,16.9
	c-1.2,2.9-2.3,4.6-3.1,5c-0.8,0.5-1.9,0.7-3.2,0.7h-7v11.3h12c3.9,0,6.5-0.6,7.8-1.7c1.4-1.1,2.3-2.1,2.8-3.1c0.5-1,1.2-2.4,2.1-4.4
	l5.2-11.7l4.6,12c1.1,3,2.4,5.1,3.6,6.2c1.3,1.1,2.6,1.8,3.9,2c1.3,0.3,3.4,0.4,6.1,0.4h10.6l0.1-12h-7.4c-1.4,0-2.5-0.2-3.3-0.5
	c-0.7-0.4-1.4-1.1-1.9-2.3l-7.5-16.6c-0.8-1.7-1.4-3.4-1.7-5.2c-0.3-1.8-0.4-3.9-0.4-6.3V65.3H63.7L63.7,65.3z M41.6,40.6v90.8h14.3
	V54.3h28.7v77.1h13.9V40.6H41.6z M113.8,40.1v50.3l-8.2,0.1v68.6h39.2c2.5,0,4.8-0.4,6.9-1.2c2.1-0.8,3.7-1.9,4.7-3.2
	c1-1.3,1.6-2.9,2-4.7c0.4-1.8,0.5-3.6,0.5-5.2V90.5h-28.5V61.3h28.2V48h-28.2v-8.1L113.8,40.1L113.8,40.1z M142.7,104.5v34.7
	c0,3.8-1.5,5.7-4.5,5.7H121v-40.4H142.7z"/>
</svg>
