<?xml version="1.0" encoding="utf-8"?>
<!-- Generator: Adobe Illustrator 24.0.1, SVG Export Plug-In . SVG Version: 6.00 Build 0)  -->
<svg version="1.1" id="图层_1" xmlns="http://www.w3.org/2000/svg" xmlns:xlink="http://www.w3.org/1999/xlink" x="0px" y="0px"
	 viewBox="0 0 200 200" style="enable-background:new 0 0 200 200;" xml:space="preserve">
<style type="text/css">
	.st0{fill:#F9101B;}
	.st1{fill:#030405;}
	.st2{fill:#FD9F19;}
</style>
<path class="st0" d="M148.2,93c0,0,20.5-48.7-47.8-24.5c2.2-25.6-9-41.2-42.3-22.2c0,0-108.3,73.5-29.3,120.4
	c0,0,99.4,41.1,144.5-35.2C182.2,104,155.6,92.6,148.2,93z M84.1,166.6c-32.9,3.8-61.6-10.8-64-32.7s22.1-42.6,55-46.3
	c32.9-3.8,61.6,10.8,64.1,32.7C141.6,142,117,162.8,84.1,166.6z"/>
<path class="st1" d="M73.3,103.2c17.7-1.6,33.2,9.2,34.5,24.1c1.3,14.9-11.9,28.4-29.6,29.9c-17.7,1.6-33.2-9.2-34.5-24.1
	C42.4,118.2,55.6,104.8,73.3,103.2L73.3,103.2z M65.9,127.8c-5.5,0-9.9,4.2-9.9,9.3c0,5.1,4.5,9.3,9.9,9.3c5.5,0,9.9-4.2,9.9-9.3
	C75.8,131.9,71.4,127.8,65.9,127.8z M83,121.8c-2.5,0-4.5,2-4.5,4.5s2,4.5,4.5,4.5l0,0c2.5,0,4.5-2,4.5-4.5S85.5,121.8,83,121.8z"/>
<path class="st2" d="M169.1,82.8c-2,0-3.7-1.6-3.7-3.7c0-0.3,0-0.6,0.1-0.8c2.3-10.3,1.4-17.6-2.8-21.7c-6.9-6.8-20.9-3.5-21.1-3.5
	c-2,0.5-4-0.7-4.5-2.7c-0.5-2,0.7-4,2.7-4.5c0.7-0.2,18.1-4.3,28,5.4c6.1,6,7.8,15.7,4.9,28.7C172.4,81.6,170.9,82.8,169.1,82.8z"/>
<path class="st2" d="M193.3,93c-2.7,0-5-2.2-5-5c0-0.3,0-0.5,0.1-0.8c4.2-25.1,0.8-42.7-10-52.4c-16.7-14.8-46.4-6.4-46.7-6.3
	c-2.6,0.8-5.4-0.7-6.1-3.4c-0.7-2.6,0.8-5.4,3.4-6.1c1.4-0.4,35.2-10,56,8.4c13.5,12,18,32.7,13.2,61.4
	C197.8,91.2,195.7,93,193.3,93L193.3,93z"/>
</svg>
