<?xml version="1.0" standalone="no"?><!DOCTYPE svg PUBLIC "-//W3C//DTD SVG 1.1//EN" "http://www.w3.org/Graphics/SVG/1.1/DTD/svg11.dtd"><svg t="1622366086228" class="icon" viewBox="0 0 1024 1024" version="1.1" xmlns="http://www.w3.org/2000/svg" p-id="1983" xmlns:xlink="http://www.w3.org/1999/xlink" width="200" height="200"><defs><style type="text/css"></style></defs><path d="M614.4 880.64c-176.64 51.2-360.96-17.92-453.12-176.64-66.56-110.08-74.24-225.28-28.16-345.6 5.12-23.04 15.36-43.52 30.72-61.44 7.68-20.48 23.04-35.84 35.84-51.2 10.24-15.36 17.92-17.92 30.72-2.56 35.84 38.4 74.24 76.8 112.64 115.2 38.4 38.4 38.4 87.04 0 125.44-38.4 40.96-79.36 79.36-117.76 120.32-5.12 5.12-12.8 10.24-15.36 20.48-7.68 28.16-2.56 51.2 20.48 66.56 23.04 15.36 48.64 12.8 69.12-10.24 35.84-35.84 69.12-71.68 107.52-107.52 51.2-48.64 76.8-107.52 71.68-179.2-5.12-20.48-12.8-38.4-17.92-58.88-12.8-25.6-33.28-46.08-53.76-66.56C358.4 222.72 312.32 176.64 266.24 128c-33.28-33.28-64-33.28-97.28-2.56-284.16 253.44-194.56 721.92 161.28 849.92 104.96 38.4 212.48 40.96 320 5.12 38.4-12.8 53.76-48.64 33.28-79.36-12.8-20.48-35.84-28.16-69.12-20.48z" fill="#0062CD" p-id="1984"></path><path d="M355.84 23.04c-33.28 10.24-48.64 43.52-40.96 69.12 10.24 30.72 38.4 43.52 71.68 33.28 58.88-17.92 117.76-23.04 176.64-12.8 151.04 28.16 256 112.64 309.76 256 51.2 143.36 25.6 276.48-71.68 394.24-10.24 12.8-17.92 12.8-28.16 0-35.84-38.4-74.24-74.24-110.08-110.08-43.52-43.52-43.52-92.16 0-135.68l115.2-115.2c25.6-25.6 25.6-58.88 2.56-79.36-23.04-20.48-53.76-20.48-76.8 5.12l-122.88 122.88c-71.68 74.24-74.24 186.88-5.12 261.12 51.2 53.76 104.96 104.96 158.72 158.72 12.8 0 15.36 12.8 25.6 17.92 20.48 10.24 40.96 7.68 61.44-7.68 5.12-5.12 10.24-10.24 17.92-10.24 5.12-2.56 7.68-5.12 12.8-10.24 161.28-156.16 194.56-404.48 89.6-601.6-110.08-202.24-363.52-307.2-586.24-235.52z" fill="#0061CD" p-id="1985"></path><path d="M832 880.64c-33.28 28.16-56.32 28.16-87.04 0l-7.68-7.68c33.28 40.96 69.12 40.96 104.96 0-5.12 0-7.68 2.56-10.24 7.68z" fill="#3070B3" p-id="1986"></path><path d="M824.32 883.2c-20.48 15.36-40.96 17.92-61.44 7.68-10.24-5.12-12.8-17.92-25.6-17.92l7.68 7.68c30.72 28.16 53.76 28.16 87.04 0 2.56-2.56 7.68-5.12 10.24-7.68-10.24-2.56-12.8 5.12-17.92 10.24z" fill="#3070B3" p-id="1987"></path></svg>