<?xml version="1.0" encoding="utf-8"?>
<!-- Generator: Adobe Illustrator 24.0.1, SVG Export Plug-In . SVG Version: 6.00 Build 0)  -->
<svg version="1.1" id="图层_1" xmlns="http://www.w3.org/2000/svg" xmlns:xlink="http://www.w3.org/1999/xlink" x="0px" y="0px"
	 viewBox="0 0 1063.3 746" style="enable-background:new 0 0 1063.3 746;" xml:space="preserve">
<style type="text/css">
	.st0{fill:#EA4639;}
	.st1{fill:#FD5945;}
	.st2{enable-background:new    ;}
	.st3{fill:#FFFFFF;}
</style>
<title>资源 2</title>
<g id="图层_2_1_">
	<g id="图层_1-2">
		<path class="st0" d="M379.9,669.1h579.6l101.6-405.6c9.9-39.6-14.1-79.8-53.8-89.8c-5.9-1.5-11.9-2.2-18-2.2H474.8l28.4,278.6
			l-117.5,219"/>
		<path class="st1" d="M385.6,669.1c0,0,293.6-188,80.2-506.4c0,0,12,97.2-48.1,108.6c0,0-0.4-227.1-208.6-271.3
			c0,0,25.2,136.8-48.1,199c0,0-39.7,30.8-96.3-36.1c0,0,20.1,93.3-32.1,162.7c0,0-140.2,234.4,160.4,343.6c0,0-156.5-194,16-325.5
			c-15.4,40.1-1.6,87,32,108.5c0,0-24-135.6,80.2-180.8c0,0-2.1,88.9,32.1,126.6C422.4,466.6,436.1,582.4,385.6,669.1L385.6,669.1z"
			/>
		<g class="st2">
			<path class="st3" d="M803.5,245.9v352.7h-88V409.5c0-27.3-0.7-43.7-2-49.2c-1.3-5.5-4.9-9.7-10.8-12.5s-19-4.2-39.3-4.2h-8.7
				v-41.1c42.5-9.2,74.9-28,96.9-56.5H803.5z"/>
		</g>
	</g>
</g>
</svg>
