<?xml version="1.0" encoding="utf-8"?>
<!-- Generator: Adobe Illustrator 24.0.1, SVG Export Plug-In . SVG Version: 6.00 Build 0)  -->
<svg version="1.1" id="图层_1" xmlns="http://www.w3.org/2000/svg" xmlns:xlink="http://www.w3.org/1999/xlink" x="0px" y="0px"
	 viewBox="0 0 1063.3 746" style="enable-background:new 0 0 1063.3 746;" xml:space="preserve">
<style type="text/css">
	.st0{fill-rule:evenodd;clip-rule:evenodd;fill:#F26D00;}
	.st1{fill-rule:evenodd;clip-rule:evenodd;fill:#FF7900;}
	.st2{enable-background:new    ;}
	.st3{fill:#FFFFFF;}
</style>
<title>资源 2</title>
<path class="st0" d="M379.9,669.1h579.6l101.6-405.6c9.9-39.6-14.1-79.8-53.8-89.8c-5.9-1.5-11.9-2.2-18-2.2H474.8l28.4,278.6
	l-117.5,219"/>
<path class="st1" d="M385.6,669.1c0,0,293.6-188,80.2-506.4c0,0,12,97.2-48.1,108.6c0,0-0.4-227.1-208.6-271.3
	c0,0,25.2,136.8-48.1,199c0,0-39.7,30.8-96.3-36.1c0,0,20.1,93.3-32.1,162.7c0,0-140.2,234.4,160.4,343.6c0,0-156.5-194,16-325.5
	c-15.4,40.1-1.6,87,32,108.5c0,0-24-135.6,80.2-180.8c0,0-2.1,88.9,32.1,126.6C422.4,466.6,436.1,582.4,385.6,669.1L385.6,669.1z"/>
<g class="st2">
	<path class="st3" d="M857.6,538.4v60.1H663.9l0.1-50.3c57.4-93.8,91.4-151.9,102.3-174.1c10.8-22.3,16.2-39.7,16.2-52.2
		c0-9.6-1.6-16.7-4.9-21.5c-3.3-4.7-8.3-7.1-14.9-7.1c-6.7,0-11.7,2.6-14.9,7.8c-3.3,5.2-4.9,15.6-4.9,31.1v33.5H664V353
		c0-19.7,1-35.3,3-46.7c2-11.4,7-22.6,15-33.7c8-11,18.4-19.4,31.1-25c12.8-5.7,28.1-8.5,46-8.5c35,0,61.5,8.7,79.4,26
		c17.9,17.4,26.9,39.3,26.9,65.9c0,20.2-5,41.5-15.1,64s-39.8,70.3-89.2,143.3h96.5V538.4z"/>
</g>
</svg>
