<?xml version="1.0" encoding="utf-8"?>
<!-- Generator: Adobe Illustrator 24.0.1, SVG Export Plug-In . SVG Version: 6.00 Build 0)  -->
<svg version="1.1" id="图层_1" xmlns="http://www.w3.org/2000/svg" xmlns:xlink="http://www.w3.org/1999/xlink" x="0px" y="0px"
	 viewBox="0 0 1063.3 746" style="enable-background:new 0 0 1063.3 746;" xml:space="preserve">
<style type="text/css">
	.st0{fill:#F98410;}
	.st1{fill-rule:evenodd;clip-rule:evenodd;fill:#FAA90E;}
	.st2{enable-background:new    ;}
	.st3{fill:#FFFFFF;}
</style>
<title>资源 2</title>
<path class="st0" d="M379.9,669.1h579.6l101.6-405.6c9.9-39.6-14.1-79.8-53.8-89.8c-5.9-1.5-11.9-2.2-18-2.2H474.8l28.4,278.6
	l-117.5,219"/>
<path class="st1" d="M385.6,669.1c0,0,293.6-188,80.2-506.4c0,0,12,97.2-48.1,108.6c0,0-0.4-227.1-208.6-271.3
	c0,0,25.2,136.8-48.1,199c0,0-39.7,30.8-96.3-36.1c0,0,20.1,93.3-32.1,162.7c0,0-140.2,234.4,160.4,343.6c0,0-156.5-194,16-325.5
	c-15.4,40.1-1.6,87,32,108.5c0,0-24-135.6,80.2-180.8c0,0-2.1,88.9,32.1,126.6C422.4,466.6,436.1,582.4,385.6,669.1L385.6,669.1z"/>
<g class="st2">
	<path class="st3" d="M833.2,398.7c13.4,4.5,23.3,11.9,29.8,22.1c6.5,10.2,9.8,34.3,9.8,72c0,28-3.2,49.8-9.6,65.3
		c-6.4,15.5-17.4,27.2-33.1,35.3c-15.7,8.1-35.8,12.1-60.3,12.1c-27.9,0-49.8-4.7-65.7-14c-15.9-9.4-26.4-20.8-31.4-34.4
		c-5-13.6-7.5-37.1-7.5-70.7v-27.9h88v57.3c0,15.2,0.9,24.9,2.7,29.1c1.8,4.1,5.8,6.2,12.1,6.2c6.8,0,11.3-2.6,13.5-7.8
		c2.2-5.2,3.3-18.9,3.3-41v-24.4c0-13.5-1.5-23.4-4.6-29.6c-3-6.2-7.6-10.3-13.5-12.3c-6-2-17.5-3.1-34.6-3.4v-51.2
		c20.9,0,33.8-0.8,38.8-2.4c4.9-1.6,8.5-5.1,10.7-10.5c2.2-5.4,3.3-13.8,3.3-25.3v-19.6c0-12.3-1.3-20.5-3.8-24.4
		c-2.5-3.9-6.5-5.9-11.9-5.9c-6.1,0-10.3,2.1-12.5,6.2c-2.3,4.1-3.4,13-3.4,26.5v29h-88v-30.1c0-33.7,7.7-56.4,23.1-68.3
		c15.4-11.8,39.9-17.8,73.4-17.8c42,0,70.4,8.2,85.4,24.6c15,16.4,22.4,39.2,22.4,68.3c0,19.7-2.7,34-8.1,42.8
		C856.1,383.4,846.7,391.4,833.2,398.7z"/>
</g>
</svg>
